<svg xmlns="http://www.w3.org/2000/svg" version="1.0" width="64.000000pt" height="64.000000pt" viewBox="0 0 64.000000 64.000000" preserveAspectRatio="xMidYMid meet">
  <g transform="translate(0.000000,64.000000) scale(0.100000,-0.100000)" fill="#000000" stroke="none">
    <path d="M97 616 c-3 -8 -22 -16 -44 -18 l-38 -3 0 -290 0 -290 163 -3 c103 -1 162 1 162 7 0 7 -59 12 -152 13 l-153 3 0 270 0 270 24 3 c16 3 30 -3 39 -15 12 -17 14 -17 23 0 13 22 55 22 69 0 10 -17 10 -17 20 0 6 9 22 17 35 17 13 0 29 -8 35 -17 10 -17 10 -17 20 0 6 9 22 17 35 17 13 0 28 -8 34 -17 9 -17 11 -17 23 0 9 12 23 18 39 15 23 -3 24 -5 27 -105 2 -60 7 -103 13 -103 6 0 9 42 7 113 l-3 112 -35 3 c-19 2 -41 11 -48 20 -12 16 -14 16 -23 0 -6 -10 -21 -18 -34 -18 -13 0 -29 8 -35 18 -10 16 -10 16 -20 0 -6 -10 -22 -18 -35 -18 -13 0 -29 8 -35 18 -10 16 -10 16 -20 0 -13 -22 -58 -24 -66 -3 -8 19 -20 19 -27 1z"/>
    <path d="M70 470 c0 -6 65 -10 175 -10 110 0 175 4 175 10 0 6 -65 10 -175 10 -110 0 -175 -4 -175 -10z"/>
    <path d="M70 380 c0 -6 65 -10 175 -10 110 0 175 4 175 10 0 6 -65 10 -175 10 -110 0 -175 -4 -175 -10z"/>
    <path fill="#6A0DAD" d="M388 309 c-103 -54 -102 -219 2 -278 107 -60 240 17 240 139 0 122 -132 198 -242 139z m117 -159 c-64 -64 -66 -65 -107 -8 -28 41 -9 61 23 24 l22 -26 49 46 c37 34 53 43 61 35 8 -8 -4 -27 -48 -71z"/>
    <path d="M70 290 c0 -6 47 -10 120 -10 73 0 120 4 120 10 0 6 -47 10 -120 10 -73 0 -120 -4 -120 -10z"/>
    <path d="M70 200 c0 -6 40 -10 100 -10 60 0 100 4 100 10 0 6 -40 10 -100 10 -60 0 -100 -4 -100 -10z"/>
    <path d="M70 110 c0 -6 42 -10 105 -10 63 0 105 4 105 10 0 6 -42 10 -105 10 -63 0 -105 -4 -105 -10z"/>
  </g>
</svg>